<?xml version="1.0" encoding="UTF-8"?>
<svg width="200" height="200" viewBox="0 0 200 200" xmlns="http://www.w3.org/2000/svg">
  <!-- 任务系统图标 - 扁平圆形图标风格 -->
  <defs>
    <linearGradient id="bg-gradient" x1="0%" y1="0%" x2="100%" y2="100%">
      <stop offset="0%" style="stop-color:#DDA0DD"/>
      <stop offset="100%" style="stop-color:#BA55D3"/>
    </linearGradient>
  </defs>

  <!-- 背景圆形 -->
  <circle cx="100" cy="100" r="98" fill="url(#bg-gradient)"/>
  
  <!-- 卷轴主体 -->
  <path d="M60 50c0 0 0 100 0 100c20-10 60-10 80 0c0 0 0-100 0-100c-20-10-60-10-80 0z" 
        fill="#FFF"/>
  
  <!-- 卷轴边缘 -->
  <path d="M60 50c-10-5-10-15 0-20c20-10 60-10 80 0c10 5 10 15 0 20" 
        fill="#DDA0DD"/>
  <path d="M60 150c-10 5-10 15 0 20c20 10 60 10 80 0c10-5 10-15 0-20" 
        fill="#DDA0DD"/>
  
  <!-- 任务清单 -->
  <path d="M80 80l40 0M80 100l40 0M80 120l20 0" 
        stroke="#BA55D3" 
        stroke-width="4"
        stroke-linecap="round"/>
  
  <!-- 任务标记 -->
  <circle cx="70" cy="80" r="3" fill="#BA55D3"/>
  <circle cx="70" cy="100" r="3" fill="#BA55D3"/>
  <circle cx="70" cy="120" r="3" fill="#BA55D3"/>
</svg>
