<?xml version="1.0" encoding="UTF-8"?>
<svg width="200" height="200" viewBox="0 0 200 200" xmlns="http://www.w3.org/2000/svg">
  <!-- 美食家头像 - 扁平圆形图标风格 -->
  <defs>
    <linearGradient id="bg-gradient" x1="0%" y1="0%" x2="100%" y2="100%">
      <stop offset="0%" style="stop-color:#FF9999"/>
      <stop offset="100%" style="stop-color:#FF6B6B"/>
    </linearGradient>
    <!-- 美食家徽章渐变 -->
    <linearGradient id="food-gradient" x1="0%" y1="0%" x2="100%" y2="100%">
      <stop offset="0%" style="stop-color:#FFB6C1"/>
      <stop offset="100%" style="stop-color:#FF69B4"/>
    </linearGradient>
  </defs>

  <!-- 背景圆形 -->
  <circle cx="100" cy="100" r="98" fill="url(#bg-gradient)"/>
  
  <!-- 美食家徽章 -->
  <circle cx="100" cy="100" r="80" fill="url(#food-gradient)" opacity="0.1"/>
  
  <!-- 装饰图案：餐盘和餐具 -->
  <circle cx="100" cy="100" r="70" fill="none" stroke="white" stroke-width="2" opacity="0.3"/>
  <circle cx="100" cy="100" r="65" fill="none" stroke="white" stroke-width="1" opacity="0.3"/>
  
  <!-- 厨师帽 -->
  <path d="M60 90C60 60 100 50 100 50C100 50 140 60 140 90" 
        fill="white" 
        stroke="#EEEEEE" 
        stroke-width="4"/>
  <path d="M65 85h70" stroke="#EEEEEE" stroke-width="2"/>
  
  <!-- 叉子和勺子 -->
  <path d="M70 100L90 120M75 110L95 130" 
        stroke="white" 
        stroke-width="6" 
        stroke-linecap="round"/>
  <path d="M110 100C110 100 130 110 130 130" 
        stroke="white" 
        stroke-width="6" 
        stroke-linecap="round"
        fill="none"/>
  
  <!-- 装饰性蒸汽 -->
  <path d="M80 60S90 50 100 60S110 50 120 60" 
        stroke="white" 
        stroke-width="2"
        fill="none"
        opacity="0.6"/>
</svg>
