<?xml version="1.0" encoding="UTF-8"?>
<svg width="200" height="200" viewBox="0 0 200 200" xmlns="http://www.w3.org/2000/svg">
  <!-- 文化达人头像 - 扁平圆形图标风格 -->
  <defs>
    <linearGradient id="bg-gradient" x1="0%" y1="0%" x2="100%" y2="100%">
      <stop offset="0%" style="stop-color:#4682B4"/>
      <stop offset="100%" style="stop-color:#1E90FF"/>
    </linearGradient>
    <!-- 文化达人徽章渐变 -->
    <linearGradient id="culture-gradient" x1="0%" y1="0%" x2="100%" y2="100%">
      <stop offset="0%" style="stop-color:#87CEEB"/>
      <stop offset="100%" style="stop-color:#4169E1"/>
    </linearGradient>
  </defs>

  <!-- 背景圆形 -->
  <circle cx="100" cy="100" r="98" fill="url(#bg-gradient)"/>
  
  <!-- 文化达人徽章 -->
  <circle cx="100" cy="100" r="80" fill="url(#culture-gradient)" opacity="0.1"/>
  
  <!-- 古典建筑装饰 -->
  <path d="M40 100h20M140 100h20" stroke="#4169E1" stroke-width="1" opacity="0.3"/>
  <path d="M100 40v20M100 140v20" stroke="#4169E1" stroke-width="1" opacity="0.3"/>
  
  <!-- 书本 -->
  <rect x="70" y="70" width="60" height="80" rx="5" fill="white"/>
  <path d="M70 75L130 75" stroke="#4682B4" stroke-width="2"/>
  <path d="M70 85L130 85" stroke="#4682B4" stroke-width="2"/>
  <path d="M70 95L130 95" stroke="#4682B4" stroke-width="2"/>
  
  <!-- 书签 -->
  <path d="M110 65L110 85L120 75L110 65" fill="#FF6B6B"/>
  
  <!-- 文化符号装饰 -->
  <circle cx="60" cy="60" r="10" fill="none" stroke="#4169E1" stroke-width="1" opacity="0.3"/>
  <circle cx="140" cy="60" r="10" fill="none" stroke="#4169E1" stroke-width="1" opacity="0.3"/>
  <circle cx="60" cy="140" r="10" fill="none" stroke="#4169E1" stroke-width="1" opacity="0.3"/>
  <circle cx="140" cy="140" r="10" fill="none" stroke="#4169E1" stroke-width="1" opacity="0.3"/>
</svg>
